# xmcd
#
# Track frame offsets: 
#        182
#        45815
#        68487
#
# Disc length: 1418 seconds
#
# Revision: 1
# Processed by: cddbd v1.5.2PL0 Copyright (c) Steve Scherf et al.
# Submitted via: ExactAudioCopyFreeDBPlugin 1.0
#
DISCID=16058803
DTITLE=Underworld - Pearl's Girl (Carp Dreams... Koi) [CD2)
DYEAR=1996
DGENRE=
TTITLE0=Pearl's Girl (Carp Dreams... Koi)
TTITLE1=Mosaic
TTITLE2=Deep Arch
EXTD=
EXTT0=
EXTT1=
EXTT2=
PLAYORDER=
